Coordinates
version=1
nRows=8
nColumns=46
inDegrees=yes

Units are S.I. units (second, meters, Newtons, ...)
Angles are in degrees.

endheader
time	pelvis_tilt	pelvis_list	pelvis_rotation	pelvis_tx	pelvis_ty	pelvis_tz	bb_angle	bb_tx	bb_ty	bb_tz	hip_flexion_r	hip_adduction_r	hip_rotation_r	knee_angle_r	knee_angle_r_beta	ankle_angle_r	subtalar_angle_r	mtp_angle_r	crank_angle_r	hip_flexion_l	hip_adduction_l	hip_rotation_l	knee_angle_l	knee_angle_l_beta	ankle_angle_l	subtalar_angle_l	mtp_angle_l	crank_angle_l	lumbar_extension	lumbar_bending	lumbar_rotation	arm_flex_r	arm_add_r	arm_rot_r	elbow_flex_r	pro_sup_r	wrist_flex_r	wrist_dev_r	arm_flex_l	arm_add_l	arm_rot_l	elbow_flex_l	pro_sup_l	wrist_flex_l	wrist_dev_l
      7.50500000	     -5.98617836	      0.17201025	      6.34078440	      0.08935241	      1.16773099	     -0.24144644	      0.00000000	      0.50000000	      0.00000000	      0.25000000	     68.42620063	     -4.38350297	      7.15427786	    103.86619597	      1.81280710	    -37.01971390	     -7.38361467	      0.00000000	      0.00000000	     36.05960154	     -0.44586932	      0.82464779	     35.37170978	      0.61735280	      8.31628767	      1.43807708	      0.00000000	      0.00000000	    -67.96265171	      5.01354469	      0.58462511	     89.06103335	    -31.92951611	     49.69787728	     64.04830747	     47.06200479	      0.00000000	      0.00000000	     89.45694642	    -19.92594308	     47.36566103	     55.40907390	     29.64323247	      0.00000000	      0.00000000
      7.51000000	     -6.04492722	     -0.72248373	      5.97220032	      0.09023717	      1.16738226	     -0.24309425	      0.00000000	      0.50000000	      0.00000000	      0.25000000	     69.81430877	     -3.74883524	      6.69888661	    105.07697410	      1.83393917	    -36.31209638	     -7.45993830	      0.00000000	      0.00000000	     34.85737650	     -1.57971550	      0.72663995	     33.89756512	      0.59162412	      8.47885997	      0.76111650	      0.00000000	      0.00000000	    -67.78071292	      5.61167426	      1.36538409	     89.11867017	    -31.63319997	     49.71182518	     64.01769555	     47.04016931	      0.00000000	      0.00000000	     89.36395152	    -20.30721603	     47.29655349	     55.29803012	     29.64811452	      0.00000000	      0.00000000
      7.51500000	     -5.77356088	     -1.76545188	      5.31788974	      0.09130226	      1.16807158	     -0.24418447	      0.00000000	      0.50000000	      0.00000000	      0.25000000	     70.70270874	     -2.67783647	      6.19295525	    106.07795825	      1.85140964	    -34.98452519	     -7.11159954	      0.00000000	      0.00000000	     33.26541864	     -3.06353705	      0.23956020	     32.33428850	      0.56433980	      7.49845365	      1.16663057	      0.00000000	      0.00000000	    -67.99830556	      5.97419635	      2.20780955	     89.18575179	    -30.96134228	     49.50012119	     63.72030906	     46.90332659	      0.00000000	      0.00000000	     89.24109526	    -20.84760390	     47.48131503	     55.07811281	     29.75170191	      0.00000000	      0.00000000
      7.52000000	     -5.44624176	     -2.48388483	      4.64553124	      0.09243726	      1.16869704	     -0.24521511	      0.00000000	      0.50000000	      0.00000000	      0.25000000	     71.57464327	     -1.78024237	      6.00880758	    107.11983044	      1.86959374	    -33.51765757	     -6.51615805	      0.00000000	      0.00000000	     31.60696417	     -4.34113441	     -0.73915447	     30.96844049	      0.54050125	      7.34072322	      3.00206994	      0.00000000	      0.00000000	    -68.25777186	      6.25038574	      2.42870249	     89.20796796	    -29.31397960	     48.75567461	     62.52535150	     46.36421489	      0.00000000	      0.00000000	     89.15110567	    -22.15475693	     48.00163294	     55.12757825	     30.30070403	      0.00000000	      0.00000000
      7.52500000	     -5.51478339	     -3.21803752	      4.34327628	      0.09322427	      1.16867879	     -0.24706995	      0.00000000	      0.50000000	      0.00000000	      0.25000000	     72.87033853	     -1.41176187	      5.57901085	    108.05203240	      1.88586373	    -32.52796202	     -6.65716213	      0.00000000	      0.00000000	     30.52888560	     -5.20930083	     -1.01048882	     29.77585914	      0.51968678	      6.79979591	      3.40327000	      0.00000000	      0.00000000	    -68.16455601	      6.86602998	      3.03708169	     89.26884518	    -29.00789500	     48.72537396	     62.51036736	     46.33323458	      0.00000000	      0.00000000	     88.98280959	    -22.60890830	     47.95440258	     55.00123352	     30.31948219	      0.00000000	      0.00000000
      7.53000000	     -5.05834649	     -3.88147469	      3.59907001	      0.09431030	      1.16972049	     -0.24755814	      0.00000000	      0.50000000	      0.00000000	      0.25000000	     73.51263472	     -0.41901737	      5.39129004	    108.88099760	      1.90033190	    -30.87206130	     -5.97961866	      0.00000000	      0.00000000	     28.84717385	     -6.53929238	     -2.38635620	     28.76627743	      0.50206625	      6.47268552	      5.37039237	      0.00000000	      0.00000000	    -68.61660607	      7.07253716	      2.29730796	     89.31879377	    -25.72892893	     47.71582816	     60.47474868	     45.19789814	      0.00000000	      0.00000000	     88.72279900	    -25.55115361	     48.52133233	     56.13880273	     31.91947639	      0.00000000	      0.00000000
      7.53500000	     -4.96030310	     -4.54446268	      3.15604757	      0.09505274	      1.17018537	     -0.24892603	      0.00000000	      0.50000000	      0.00000000	      0.25000000	     74.53912192	      0.11279963	      5.05200747	    109.61264116	      1.91310149	    -29.48753478	     -5.87964700	      0.00000000	      0.00000000	     27.72412090	     -7.49420814	     -3.12873638	     27.98967662	      0.48851201	      5.99372688	      6.17914492	      0.00000000	      0.00000000	    -68.74259842	      7.44640168	      2.72143402	     89.36443516	    -25.18044627	     47.59905758	     60.42683999	     45.06568153	      0.00000000	      0.00000000	     88.49789710	    -26.15520599	     48.31656419	     56.04596424	     32.09204774	      0.00000000	      0.00000000
      7.54000000	     -5.04724285	     -5.06770155	      2.76278822	      0.09549538	      1.17045244	     -0.25045064	      0.00000000	      0.50000000	      0.00000000	      0.25000000	     75.75246449	      0.48362187	      4.76103174	    110.15819774	      1.92262325	    -28.62678504	     -5.92922338	      0.00000000	      0.00000000	     26.84248374	     -8.13929878	     -3.43906050	     27.29846091	      0.47644802	      5.51427276	      6.53710689	      0.00000000	      0.00000000	    -68.71988946	      7.83087219	      3.13995578	     89.39515920	    -24.77522516	     47.47457201	     60.42718805	     45.01039276	      0.00000000	      0.00000000	     88.23620012	    -26.63079961	     48.25939309	     55.92704374	     32.13505643	      0.00000000	      0.00000000
